<svg width="30" height="30" viewBox="0 0 30 30" fill="none" xmlns="http://www.w3.org/2000/svg">
<path d="M18.4004 2.26474C19.3715 1.26394 20.9762 1.24324 21.9773 2.21554C22.9817 3.18784 22.8584 4.57774 21.8855 5.57824C20.9129 6.57664 19.4558 6.81934 18.4544 5.84435C17.4518 4.86995 17.4251 3.26644 18.4004 2.26474Z" fill="#200E32"/>
<path d="M15.0024 22.0839L10.4178 24.1041C10.2021 24.1698 10.0047 24.3648 9.87062 24.5505C9.36482 25.2504 9.52052 26.2038 10.1832 26.682C10.6998 27.0549 11.3172 27.0528 11.8326 26.8053L13.0389 26.2572L17.0109 24.4431C19.383 23.0274 18.4941 21.2922 17.9895 20.5791C17.484 19.8657 14.9505 16.4259 14.9505 16.4259L16.1679 14.9175L19.0077 11.4198L21.6516 13.5804C21.6516 13.5804 22.3944 14.2032 23.7081 13.464L27.7344 11.3238C28.0158 11.1519 28.293 10.9005 28.4127 10.2945C28.5321 9.68817 28.056 8.81787 27.2913 8.75937C26.9985 8.73657 26.7501 8.82117 26.355 9.00057L22.644 10.6659C22.644 10.6659 21.345 8.94507 20.9283 8.48487C20.5107 8.02497 20.085 7.63827 19.5366 7.19037C18.9888 6.74217 17.4852 6.11907 16.8036 6.10137L16.3599 6.09717L11.9964 6.35937C11.2281 6.38817 10.929 6.77337 10.521 7.05747C10.113 7.34127 7.25072 9.28767 7.03952 9.44877C6.67622 9.72627 6.56972 10.0641 6.58142 10.4079C6.60242 11.0448 7.14752 11.6118 7.81682 11.6004C8.17622 11.5941 8.56052 11.3811 8.95262 11.0844L12.2064 8.98587L14.1258 9.00387L11.1066 13.7271C9.52592 15.7185 11.223 17.397 11.7978 18.1824L15.0024 22.0839Z" fill="#200E32"/>
<path d="M11.2962 18.944L11.0904 18.7001C10.8195 18.3308 10.3029 17.7608 9.99452 17.0558C9.98192 17.0273 6.15092 21.6473 6.15092 21.6473L1.95692 25.9739C1.78142 26.1167 1.67102 26.3699 1.61642 26.5922C1.40942 27.4313 1.90952 28.2572 2.70302 28.4534C3.32132 28.6058 3.89312 28.3727 4.27922 27.9515L5.80532 26.3789L8.65172 23.4701C9.54092 22.673 11.3154 20.8562 12.1704 19.9748L11.2962 18.944Z" fill="#200E32"/>
</svg>
