<svg width="32" height="32" viewBox="0 0 32 32" fill="none" xmlns="http://www.w3.org/2000/svg">
<path d="M15.8114 23.2133C16.1234 23.045 16.3179 22.7249 16.3179 22.3768V16.9562H27.0209C27.5614 16.9562 28 16.5278 28 15.9999C28 15.472 27.5614 15.0435 27.0209 15.0435H16.3179V9.62292C16.3179 9.27354 16.1234 8.95348 15.8114 8.78643C15.4994 8.61684 15.1182 8.62832 14.8166 8.81321L4.45689 15.1902C4.17231 15.3661 4 15.6709 4 15.9999C4 16.3289 4.17231 16.6336 4.45689 16.8096L14.8166 23.1865C14.9759 23.2834 15.1574 23.3332 15.3388 23.3332C15.5007 23.3332 15.6639 23.2924 15.8114 23.2133Z" fill="#200E32"/>
</svg>
