<svg width="64" height="64" viewBox="0 0 64 64" fill="none" xmlns="http://www.w3.org/2000/svg">
<path fill-rule="evenodd" clip-rule="evenodd" d="M46.5066 16.6304C46.6133 16.8169 46.7999 16.9501 47.0399 16.9501C53.4399 16.9501 58.6666 22.1709 58.6666 28.5638V44.3862C58.6666 50.7791 53.4399 56 47.0399 56H16.9599C10.5333 56 5.33325 50.7791 5.33325 44.3862V28.5638C5.33325 22.1709 10.5333 16.9501 16.9599 16.9501C17.1733 16.9501 17.3866 16.8435 17.4666 16.6304L17.6266 16.3108C17.7185 16.1173 17.8129 15.9185 17.9087 15.7168C18.5909 14.2798 19.3456 12.6901 19.8133 11.7558C21.0399 9.35849 23.1199 8.02664 25.7066 8H38.2666C40.8533 8.02664 42.9599 9.35849 44.1866 11.7558C44.6066 12.5949 45.2465 13.9464 45.8632 15.2491C45.9905 15.5179 46.1168 15.7847 46.2399 16.0444L46.5066 16.6304ZM44.5599 26.859C44.5599 28.1908 45.6265 29.2563 46.9599 29.2563C48.2932 29.2563 49.3865 28.1908 49.3865 26.859C49.3865 25.5271 48.2932 24.435 46.9599 24.435C45.6265 24.435 44.5599 25.5271 44.5599 26.859ZM27.3866 30.9877C28.6399 29.7358 30.2666 29.0699 31.9999 29.0699C33.7333 29.0699 35.3599 29.7358 36.5866 30.9611C37.8133 32.1864 38.4799 33.8113 38.4799 35.5427C38.4533 39.112 35.5733 42.0155 31.9999 42.0155C30.2666 42.0155 28.6399 41.3495 27.4133 40.1242C26.1866 38.8989 25.5199 37.2741 25.5199 35.5427V35.516C25.4933 33.8379 26.1599 32.213 27.3866 30.9877ZM39.3866 42.9479C37.4933 44.8391 34.8799 46.0111 31.9999 46.0111C29.1999 46.0111 26.5866 44.919 24.5866 42.9479C22.6133 40.9501 21.5199 38.3397 21.5199 35.5428C21.4933 32.7725 22.5866 30.1621 24.5599 28.1643C26.5599 26.1665 29.1999 25.0744 31.9999 25.0744C34.7999 25.0744 37.4399 26.1665 39.4133 28.1377C41.3866 30.1355 42.4799 32.7725 42.4799 35.5428C42.4533 38.4462 41.2799 41.0567 39.3866 42.9479Z" fill="#DADADA"/>
</svg>
