<svg width="32" height="32" viewBox="0 0 32 32" fill="none" xmlns="http://www.w3.org/2000/svg">
<path d="M23.3761 20.3579C24.208 21.189 24.208 22.5334 23.3761 23.362C22.9602 23.7776 22.422 24 21.8593 24C21.3211 24 20.7829 23.8045 20.367 23.362L16.0122 19.038L11.6575 23.362C11.2416 23.7776 10.7034 24 10.1407 24C9.60245 24 9.03976 23.7776 8.62385 23.362C7.79205 22.5334 7.79205 21.189 8.62385 20.3335L12.9786 16.007L8.62385 11.6537C7.79205 10.825 7.79205 9.45621 8.62385 8.62514C9.45566 7.79162 10.8012 7.79162 11.6575 8.62514L16.0122 12.9736L20.3425 8.62514C21.1988 7.79162 22.5443 7.79162 23.3761 8.62514C24.208 9.45621 24.208 10.825 23.3761 11.6537L19.0214 16.007L23.3761 20.3579Z" fill="#200E32"/>
</svg>
