<svg width="30" height="30" viewBox="0 0 30 30" fill="none" xmlns="http://www.w3.org/2000/svg">
<path fill-rule="evenodd" clip-rule="evenodd" d="M9.5875 2.5H20.425C24.6625 2.5 27.5 5.475 27.5 9.9V20.1138C27.5 24.525 24.6625 27.5 20.425 27.5H9.5875C5.35 27.5 2.5 24.525 2.5 20.1138V9.9C2.5 5.475 5.35 2.5 9.5875 2.5ZM14.2875 18.7375L20.225 12.8C20.65 12.375 20.65 11.6875 20.225 11.25C19.8 10.825 19.1 10.825 18.675 11.25L13.5125 16.4125L11.325 14.225C10.9 13.8 10.2 13.8 9.77499 14.225C9.34999 14.65 9.34999 15.3375 9.77499 15.775L12.75 18.7375C12.9625 18.95 13.2375 19.05 13.5125 19.05C13.8 19.05 14.075 18.95 14.2875 18.7375Z" fill="white"/>
</svg>
