<svg width="30" height="30" viewBox="0 0 30 30" fill="none" xmlns="http://www.w3.org/2000/svg">
<path d="M15.1768 8.23737C14.8843 8.39517 14.702 8.69522 14.702 9.02158V14.1034H4.66787C4.1612 14.1034 3.75 14.5051 3.75 15C3.75 15.4949 4.1612 15.8965 4.66787 15.8965H14.702V20.9784C14.702 21.3059 14.8843 21.606 15.1768 21.7626C15.4693 21.9216 15.8267 21.9108 16.1094 21.7375L25.8217 15.7591C26.0885 15.5941 26.25 15.3084 26.25 15C26.25 14.6915 26.0885 14.4058 25.8217 14.2409L16.1094 8.26248C15.9601 8.17162 15.79 8.125 15.6199 8.125C15.4681 8.125 15.3151 8.16325 15.1768 8.23737Z" fill="white"/>
</svg>
