<svg width="79" height="86" viewBox="0 0 79 86" fill="none" xmlns="http://www.w3.org/2000/svg">
<rect x="19" y="8" width="59" height="72" rx="3" stroke="#B1B1B1" stroke-width="2" stroke-dasharray="5 3"/>
<rect x="1" y="1" width="69" height="84" rx="3" fill="white" stroke="#B1B1B1" stroke-width="2" stroke-dasharray="5 3"/>
<path d="M42.1471 41.764H37.8492V37.7371C37.8492 36.7788 37.021 36 35.9988 36C34.9765 36 34.1458 36.7788 34.1458 37.7371V41.764H29.8505C28.8282 41.764 28 42.5428 28 43.5012C28 44.4595 28.8282 45.2383 29.8505 45.2383H34.1458V49.2629C34.1458 50.2212 34.9765 51 35.9988 51C37.021 51 37.8492 50.2212 37.8492 49.2629V45.2383H42.1471C43.1693 45.2383 44 44.4595 44 43.5012C44 42.5428 43.1693 41.764 42.1471 41.764Z" fill="#B1B1B1"/>
</svg>
