<svg width="30" height="30" viewBox="0 0 30 30" fill="none" xmlns="http://www.w3.org/2000/svg">
<g clip-path="url(#clip0)">
<path d="M15.9774 5.294C17.315 5.294 18.3993 4.20967 18.3993 2.8721C18.3993 1.53452 17.315 0.450195 15.9774 0.450195C14.6399 0.450195 13.5555 1.53452 13.5555 2.8721C13.5555 4.20967 14.6399 5.294 15.9774 5.294Z" fill="#200E32"/>
<path d="M23.5218 13.2931C22.8489 13.1767 20.1546 12.7099 20.0043 12.6598C19.8321 12.6025 20.0043 12.6598 19.947 12.5737C19.89 12.4876 17.5395 7.52925 17.31 7.27125C17.0808 7.01325 16.4502 6.35385 15.5619 6.06735C14.6733 5.78085 13.7847 6.23925 13.7847 6.23925C13.7847 6.23925 9.37076 8.76165 9.08426 8.90475C8.79746 9.04815 8.53976 9.56415 8.53976 9.56415L6.47906 13.438C6.31016 13.6507 6.20876 13.9192 6.20876 14.212C6.20876 14.9005 6.76706 15.4588 7.45556 15.4588C8.04416 15.4588 8.53646 15.0502 8.66726 14.5018L10.5891 10.8682L11.793 10.1947C11.7069 10.4527 10.6035 15.8269 10.6035 15.8269L9.48566 22.1899L5.56856 26.9095C5.28686 27.172 5.10986 27.5452 5.10986 27.9604C5.10986 28.7545 5.75366 29.3986 6.54776 29.3986C7.03136 29.3986 7.45856 29.1586 7.71896 28.7923C8.43656 27.9487 12.0462 23.7061 12.3945 23.293C12.7815 22.8346 12.8817 22.6054 12.939 22.3045C12.9963 22.0033 13.6413 18.1198 13.6413 18.1198L17.3385 21.8173V28.3378H17.346C17.4204 29.0677 18.0369 29.6371 18.7863 29.6371C19.5354 29.6371 20.1519 29.0677 20.226 28.3378H20.2335C20.2335 28.3378 20.2332 28.2916 20.2326 28.2115C20.2326 28.2043 20.2335 28.1968 20.2335 28.1896C20.2335 28.1803 20.2323 28.171 20.2323 28.1614C20.2254 27.1678 20.1948 22.2211 20.2335 21.1006C20.2764 19.8541 19.8318 19.5817 19.7316 19.4671C19.6311 19.3525 16.1775 15.6838 16.1775 15.6838L16.9368 12.001C16.9368 12.001 17.9259 13.9354 18.0261 14.1505C18.1266 14.3653 18.4419 14.7526 18.771 14.824C19.101 14.8957 23.214 15.727 23.214 15.727L23.2158 15.7183C23.2761 15.7273 23.3373 15.7369 23.4003 15.7369C24.0786 15.7369 24.6282 15.1873 24.6282 14.509C24.6288 13.8718 24.1425 13.3549 23.5218 13.2931Z" fill="#200E32"/>
</g>
<defs>
<clipPath id="clip0">
<rect width="30" height="30" fill="white"/>
</clipPath>
</defs>
</svg>
