<svg width="30" height="30" viewBox="0 0 30 30" fill="none" xmlns="http://www.w3.org/2000/svg">
<g clip-path="url(#clip0)">
<path fill-rule="evenodd" clip-rule="evenodd" d="M8.79717 7.45296H9.17453C7.28774 5.28315 8.79717 1.69824 11.816 1.69824H18.2311C21.25 1.69824 22.7594 5.28315 20.8726 7.45296H21.25C23.0425 7.45296 24.5519 8.49069 25.2123 10.0945C23.0425 10.6605 21.816 12.9247 21.816 15.1888V19.9058C17.2877 19.9058 12.7594 19.9058 8.23113 19.9058V15.1888C8.23113 12.9247 7.00472 10.6605 4.83491 10.0945C5.49528 8.49069 7.00472 7.45296 8.79717 7.45296ZM10.2123 9.90579C10.5896 9.90579 10.8726 10.1888 10.8726 10.5662C10.8726 10.8492 10.5896 11.1322 10.2123 11.1322C9.83491 11.1322 9.55189 10.8492 9.55189 10.5662C9.55189 10.1888 9.83491 9.90579 10.2123 9.90579ZM19.8349 12.3586C20.2123 12.3586 20.4953 12.6416 20.4953 13.019C20.4953 13.3964 20.2123 13.6794 19.8349 13.6794C19.4575 13.6794 19.1745 13.3964 19.1745 13.019C19.1745 12.6416 19.4575 12.3586 19.8349 12.3586ZM19.8349 9.90579C20.2123 9.90579 20.4953 10.1888 20.4953 10.5662C20.4953 10.8492 20.2123 11.1322 19.8349 11.1322C19.4575 11.1322 19.1745 10.8492 19.1745 10.5662C19.1745 10.1888 19.4575 9.90579 19.8349 9.90579ZM16.6274 12.3586C17.0047 12.3586 17.2877 12.6416 17.2877 13.019C17.2877 13.3964 17.0047 13.6794 16.6274 13.6794C16.25 13.6794 15.967 13.3964 15.967 13.019C15.967 12.6416 16.25 12.3586 16.6274 12.3586ZM16.6274 9.90579C17.0047 9.90579 17.2877 10.1888 17.2877 10.5662C17.2877 10.8492 17.0047 11.1322 16.6274 11.1322C16.25 11.1322 15.967 10.8492 15.967 10.5662C15.967 10.1888 16.25 9.90579 16.6274 9.90579ZM13.4198 12.3586C13.7972 12.3586 14.0802 12.6416 14.0802 13.019C14.0802 13.3964 13.7972 13.6794 13.4198 13.6794C13.0425 13.6794 12.7594 13.3964 12.7594 13.019C12.7594 12.6416 13.0425 12.3586 13.4198 12.3586ZM13.4198 9.90579C13.7972 9.90579 14.0802 10.1888 14.0802 10.5662C14.0802 10.8492 13.7972 11.1322 13.4198 11.1322C13.0425 11.1322 12.7594 10.8492 12.7594 10.5662C12.7594 10.1888 13.0425 9.90579 13.4198 9.90579ZM10.2123 12.3586C10.5896 12.3586 10.8726 12.6416 10.8726 13.019C10.8726 13.3964 10.5896 13.6794 10.2123 13.6794C9.83491 13.6794 9.55189 13.3964 9.55189 13.019C9.55189 12.6416 9.83491 12.3586 10.2123 12.3586ZM6.81604 27.1699V27.5473C6.81604 28.4907 5.3066 28.4907 5.3066 27.5473V27.1699C4.36321 27.1699 3.60849 26.4152 3.60849 25.3775V18.2077C-1.20283 18.2077 -1.20283 10.9435 3.60849 10.9435C5.87264 10.9435 7.1934 13.019 7.1934 15.1888V20.9435C12.3821 20.9435 17.6651 20.9435 22.8538 20.9435V15.1888C22.8538 13.019 24.1745 10.9435 26.4387 10.9435C31.25 10.9435 31.25 18.2077 26.4387 18.2077V25.3775C26.4387 26.4152 25.684 27.1699 24.7406 27.1699V27.5473C24.7406 28.4907 23.2311 28.4907 23.2311 27.5473V27.1699C17.7594 27.1699 12.2877 27.1699 6.81604 27.1699Z" fill="#200E32"/>
</g>
<defs>
<clipPath id="clip0">
<rect width="30" height="30" fill="white"/>
</clipPath>
</defs>
</svg>
