<svg width="294" height="64" viewBox="0 0 294 64" fill="none" xmlns="http://www.w3.org/2000/svg">
<rect width="64" height="64" rx="6.5641" fill="url(#paint0_linear)"/>
<path d="M24.32 31.0525H42.714V33.07H24.32C24.1444 34.2811 23.6638 35.3949 22.9583 36.3278L22.9929 36.2585L12.2491 30.8866C11.6609 30.2682 11.1796 29.5362 10.8402 28.7139C10.271 27.3875 10.2898 26.2414 10.302 25.499C10.3052 25.3032 10.308 25.1355 10.2993 25H17.3606C20.9084 25 23.8252 27.6396 24.32 31.0525Z" fill="white"/>
<path d="M12.5746 32.9134C11.8386 33.5914 11.2431 34.4319 10.8451 35.3969C10.262 36.7563 10.2857 37.9346 10.3002 38.6599C10.3039 38.8452 10.3071 39.0009 10.2993 39.1226H17.3606C19.0498 39.1226 20.5959 38.5242 21.8057 37.5289L12.5746 32.9134Z" fill="white"/>
<path d="M9 34.5846C9.38669 33.653 9.92046 32.8022 10.5831 32.0593C9.92577 31.3199 9.39462 30.4696 9.00161 29.5344L9 34.5846Z" fill="white"/>
<path d="M38.68 31.0525H20.2859V33.07H38.68C38.8555 34.2811 39.3361 35.3949 40.0416 36.3278L40.007 36.2585L50.7508 30.8866C51.339 30.2682 51.8203 29.5362 52.1598 28.7139C52.7289 27.3875 52.7101 26.2414 52.6979 25.499C52.6947 25.3032 52.692 25.1355 52.7006 25H45.6393C42.0915 25 39.1747 27.6396 38.68 31.0525Z" fill="white"/>
<path d="M50.4254 32.9134C51.1614 33.5914 51.7568 34.4319 52.1549 35.3969C52.7379 36.7563 52.7143 37.9346 52.6997 38.6599C52.696 38.8452 52.6929 39.0009 52.7006 39.1226H45.6393C43.9502 39.1226 42.4041 38.5242 41.1943 37.5289L50.4254 32.9134Z" fill="white"/>
<path d="M53.9999 34.5846C53.6132 33.653 53.0795 32.8022 52.4169 32.0593C53.0742 31.3199 53.6053 30.4696 53.9983 29.5344L53.9999 34.5846Z" fill="white"/>
<path d="M87.1553 34L83.7149 28.0054H81.734V34H77.5638V15.7554H84.8617C86.5992 15.7554 88.0762 16.3636 89.2925 17.5799C90.5088 18.7962 91.1169 20.2731 91.1169 22.0107C91.1169 23.1228 90.8042 24.1566 90.1787 25.1123C89.5705 26.0506 88.7625 26.7804 87.7547 27.3016L91.6382 34H87.1553ZM81.734 19.665V24.3564H84.8617C85.4351 24.3564 85.9216 24.1305 86.3212 23.6788C86.7382 23.227 86.9468 22.671 86.9468 22.0107C86.9468 21.3504 86.7382 20.7944 86.3212 20.3426C85.9216 19.8909 85.4351 19.665 84.8617 19.665H81.734ZM107.732 31.6282C105.89 33.4527 103.648 34.3649 101.007 34.3649C98.3662 34.3649 96.1247 33.4527 94.2829 31.6282C92.441 29.8037 91.5201 27.5536 91.5201 24.8777C91.5201 22.2018 92.441 19.9517 94.2829 18.1272C96.1247 16.3028 98.3662 15.3905 101.007 15.3905C103.648 15.3905 105.89 16.3028 107.732 18.1272C109.574 19.9517 110.494 22.2018 110.494 24.8777C110.494 27.5536 109.574 29.8037 107.732 31.6282ZM97.202 28.7873C98.2272 29.7951 99.4956 30.299 101.007 30.299C102.519 30.299 103.779 29.7951 104.787 28.7873C105.812 27.7795 106.324 26.4763 106.324 24.8777C106.324 23.2791 105.812 21.9759 104.787 20.9682C103.779 19.9604 102.519 19.4565 101.007 19.4565C99.4956 19.4565 98.2272 19.9604 97.202 20.9682C96.1942 21.9759 95.6903 23.2791 95.6903 24.8777C95.6903 26.4763 96.1942 27.7795 97.202 28.7873ZM117.524 34.3649C115.665 34.3649 114.109 33.9652 112.858 33.166C111.625 32.3493 110.747 31.2459 110.226 29.8559L113.823 27.7708C114.552 29.4562 115.83 30.299 117.654 30.299C119.305 30.299 120.13 29.8037 120.13 28.8133C120.13 28.2747 119.861 27.8577 119.322 27.5623C118.801 27.2495 117.81 26.8933 116.351 26.4937C115.586 26.2851 114.917 26.0506 114.344 25.7899C113.771 25.5293 113.206 25.1905 112.65 24.7735C112.111 24.3391 111.694 23.8004 111.399 23.1575C111.121 22.5146 110.982 21.7761 110.982 20.9421C110.982 19.2566 111.581 17.91 112.78 16.9022C113.996 15.8944 115.439 15.3905 117.107 15.3905C118.601 15.3905 119.922 15.7467 121.068 16.4591C122.215 17.1542 123.119 18.1706 123.779 19.5086L120.26 21.5676C119.93 20.8726 119.522 20.3513 119.035 20.0038C118.549 19.6389 117.906 19.4565 117.107 19.4565C116.481 19.4565 115.995 19.5955 115.647 19.8735C115.317 20.1341 115.152 20.4556 115.152 20.8378C115.152 21.2896 115.36 21.6806 115.777 22.0107C116.212 22.3408 117.098 22.7057 118.436 23.1054C119.166 23.3313 119.73 23.5137 120.13 23.6527C120.53 23.7917 121.034 24.0263 121.642 24.3564C122.267 24.6692 122.736 25.008 123.049 25.3729C123.379 25.7204 123.666 26.1896 123.909 26.7804C124.17 27.3538 124.3 28.014 124.3 28.7612C124.3 30.4988 123.675 31.8715 122.424 32.8793C121.173 33.8697 119.539 34.3649 117.524 34.3649ZM129.385 29.9862H136.683V34H125.215V15.7554H136.552V19.7692H129.385V22.7926H135.901V26.7543H129.385V29.9862ZM148.861 34.3649C145.96 34.3649 143.901 33.1833 142.684 30.8202L146.307 28.7351C146.62 29.2912 146.959 29.6908 147.324 29.9341C147.706 30.1773 148.227 30.299 148.888 30.299C150.469 30.299 151.259 29.5779 151.259 28.1357V15.7554H155.43V28.1357C155.43 30.0818 154.813 31.6108 153.579 32.7229C152.363 33.8176 150.79 34.3649 148.861 34.3649ZM169.353 32.6708C168.033 33.8002 166.347 34.3649 164.297 34.3649C162.247 34.3649 160.561 33.8002 159.241 32.6708C157.92 31.5413 157.26 30.0209 157.26 28.1096V15.7554H161.43V27.7447C161.43 29.4475 162.386 30.299 164.297 30.299C166.208 30.299 167.164 29.4475 167.164 27.7447V15.7554H171.334V28.1096C171.334 30.0209 170.674 31.5413 169.353 32.6708ZM183.464 15.7554H187.634V34H184.506L177.469 24.0958V34H173.299V15.7554H176.427L183.464 25.6596V15.7554ZM193.887 29.9862H201.185V34H189.717V15.7554H201.055V19.7692H193.887V22.7926H200.403V26.7543H193.887V29.9862ZM220.219 15.7554V19.7692H215.527V34H211.357V19.7692H206.666V15.7554H220.219ZM231.302 34L230.39 31.133H223.613L222.701 34H218.14L224.343 15.7554H229.66L235.863 34H231.302ZM224.864 27.2234H229.139L227.001 20.5251L224.864 27.2234ZM248.891 15.7554L242.766 26.9889V34H238.596V26.9889L232.471 15.7554H237.214L240.681 22.7926L244.147 15.7554H248.891ZM253.579 29.9862H260.095V34H249.409V15.7554H253.579V29.9862ZM275.275 31.6282C273.434 33.4527 271.192 34.3649 268.551 34.3649C265.91 34.3649 263.668 33.4527 261.827 31.6282C259.985 29.8037 259.064 27.5536 259.064 24.8777C259.064 22.2018 259.985 19.9517 261.827 18.1272C263.668 16.3028 265.91 15.3905 268.551 15.3905C271.192 15.3905 273.434 16.3028 275.275 18.1272C277.117 19.9517 278.038 22.2018 278.038 24.8777C278.038 27.5536 277.117 29.8037 275.275 31.6282ZM264.746 28.7873C265.771 29.7951 267.039 30.299 268.551 30.299C270.063 30.299 271.322 29.7951 272.33 28.7873C273.355 27.7795 273.868 26.4763 273.868 24.8777C273.868 23.2791 273.355 21.9759 272.33 20.9682C271.322 19.9604 270.063 19.4565 268.551 19.4565C267.039 19.4565 265.771 19.9604 264.746 20.9682C263.738 21.9759 263.234 23.2791 263.234 24.8777C263.234 26.4763 263.738 27.7795 264.746 28.7873ZM288.935 34L285.495 28.0054H283.514V34H279.344V15.7554H286.641C288.379 15.7554 289.856 16.3636 291.072 17.5799C292.289 18.7962 292.897 20.2731 292.897 22.0107C292.897 23.1228 292.584 24.1566 291.958 25.1123C291.35 26.0506 290.542 26.7804 289.535 27.3016L293.418 34H288.935ZM283.514 19.665V24.3564H286.641C287.215 24.3564 287.701 24.1305 288.101 23.6788C288.518 23.227 288.727 22.671 288.727 22.0107C288.727 21.3504 288.518 20.7944 288.101 20.3426C287.701 19.8909 287.215 19.665 286.641 19.665H283.514Z" fill="url(#paint1_linear)"/>
<path d="M81.697 45.3004H78.3944V47.2584H81.6027V48.8153H78.3944V52H76.7667V43.7434H81.697V45.3004ZM86.4216 43.7434H88.0494V52H86.4216V43.7434ZM98.5774 43.7434V45.3004H96.3482V52H94.7204V45.3004H92.5029V43.7434H98.5774ZM107.802 43.7434H109.429V52H108.191L104.652 46.9517V52H103.025V43.7434H104.263L107.802 48.7799V43.7434ZM116.127 50.443H119.607V52H114.5V43.7434H119.548V45.3004H116.127V47.0578H119.253V48.5912H116.127V50.443ZM127.112 52.1651C126.294 52.1651 125.606 51.9843 125.048 51.6226C124.489 51.253 124.096 50.7536 123.868 50.1246L125.26 49.3107C125.582 50.1521 126.215 50.5728 127.159 50.5728C127.615 50.5728 127.949 50.4902 128.162 50.3251C128.374 50.16 128.48 49.9516 128.48 49.7C128.48 49.409 128.35 49.1849 128.091 49.0276C127.831 48.8625 127.367 48.6856 126.699 48.4968C126.329 48.3868 126.015 48.2767 125.755 48.1666C125.504 48.0565 125.248 47.911 124.989 47.7302C124.737 47.5414 124.544 47.3055 124.411 47.0225C124.277 46.7394 124.21 46.4091 124.21 46.0317C124.21 45.2846 124.474 44.691 125 44.2506C125.535 43.8024 126.176 43.5783 126.923 43.5783C127.591 43.5783 128.177 43.7434 128.681 44.0737C129.192 44.3961 129.589 44.8482 129.872 45.4301L128.504 46.2204C128.173 45.5127 127.646 45.1588 126.923 45.1588C126.585 45.1588 126.318 45.2375 126.121 45.3947C125.932 45.5441 125.838 45.7407 125.838 45.9845C125.838 46.244 125.944 46.4563 126.156 46.6214C126.377 46.7787 126.793 46.9517 127.407 47.1404C127.658 47.219 127.847 47.282 127.973 47.3291C128.106 47.3684 128.283 47.4353 128.504 47.5296C128.732 47.6161 128.905 47.6987 129.023 47.7773C129.148 47.856 129.29 47.9621 129.447 48.0958C129.604 48.2295 129.722 48.3671 129.801 48.5086C129.888 48.6502 129.958 48.8232 130.013 49.0276C130.076 49.2242 130.108 49.4405 130.108 49.6764C130.108 50.4391 129.829 51.0446 129.27 51.4928C128.72 51.941 128 52.1651 127.112 52.1651ZM137.274 52.1651C136.456 52.1651 135.768 51.9843 135.209 51.6226C134.651 51.253 134.258 50.7536 134.03 50.1246L135.422 49.3107C135.744 50.1521 136.377 50.5728 137.321 50.5728C137.777 50.5728 138.111 50.4902 138.323 50.3251C138.536 50.16 138.642 49.9516 138.642 49.7C138.642 49.409 138.512 49.1849 138.253 49.0276C137.993 48.8625 137.529 48.6856 136.861 48.4968C136.491 48.3868 136.177 48.2767 135.917 48.1666C135.665 48.0565 135.41 47.911 135.15 47.7302C134.899 47.5414 134.706 47.3055 134.572 47.0225C134.439 46.7394 134.372 46.4091 134.372 46.0317C134.372 45.2846 134.635 44.691 135.162 44.2506C135.697 43.8024 136.338 43.5783 137.085 43.5783C137.753 43.5783 138.339 43.7434 138.842 44.0737C139.353 44.3961 139.751 44.8482 140.034 45.4301L138.665 46.2204C138.335 45.5127 137.808 45.1588 137.085 45.1588C136.747 45.1588 136.479 45.2375 136.283 45.3947C136.094 45.5441 136 45.7407 136 45.9845C136 46.244 136.106 46.4563 136.318 46.6214C136.538 46.7787 136.955 46.9517 137.568 47.1404C137.82 47.219 138.009 47.282 138.135 47.3291C138.268 47.3684 138.445 47.4353 138.665 47.5296C138.893 47.6161 139.066 47.6987 139.184 47.7773C139.31 47.856 139.452 47.9621 139.609 48.0958C139.766 48.2295 139.884 48.3671 139.963 48.5086C140.049 48.6502 140.12 48.8232 140.175 49.0276C140.238 49.2242 140.269 49.4405 140.269 49.6764C140.269 50.4391 139.99 51.0446 139.432 51.4928C138.882 51.941 138.162 52.1651 137.274 52.1651Z" fill="url(#paint2_linear)"/>
<defs>
<linearGradient id="paint0_linear" x1="0" y1="32" x2="64" y2="32" gradientUnits="userSpaceOnUse">
<stop stop-color="#F77062"/>
<stop offset="1" stop-color="#FE5196"/>
</linearGradient>
<linearGradient id="paint1_linear" x1="76" y1="25" x2="294" y2="25" gradientUnits="userSpaceOnUse">
<stop stop-color="#F77062"/>
<stop offset="1" stop-color="#FE5196"/>
</linearGradient>
<linearGradient id="paint2_linear" x1="76" y1="48.049" x2="140.873" y2="48.049" gradientUnits="userSpaceOnUse">
<stop stop-color="#F77062"/>
<stop offset="1" stop-color="#FE5196"/>
</linearGradient>
</defs>
</svg>
