<svg width="30" height="30" viewBox="0 0 30 30" fill="none" xmlns="http://www.w3.org/2000/svg">
<path fill-rule="evenodd" clip-rule="evenodd" d="M15.408 2.76208C15.6076 2.5829 15.8716 2.48898 16.1419 2.50103C21.8554 2.67207 26.6305 6.81975 27.4959 12.3633C27.5014 12.3964 27.5014 12.4301 27.4959 12.4632C27.5145 12.7255 27.4259 12.9843 27.2495 13.1823C27.0732 13.3803 26.8237 13.5012 26.5563 13.5183L16.957 14.1514C16.6395 14.1795 16.3247 14.0751 16.0898 13.8637C15.8549 13.6522 15.7218 13.3535 15.7231 13.0408L15.0778 3.61165V3.45616C15.0896 3.19097 15.2084 2.94125 15.408 2.76208ZM14.7496 16.617L23.0698 16.0839L23.1264 16.1061C23.4836 16.1119 23.8239 16.2568 24.0723 16.5088C24.3207 16.7609 24.4569 17.0994 24.4508 17.4499C24.1229 22.2275 20.6202 26.2194 15.8535 27.2478C11.0867 28.2762 6.20022 26.0943 3.85973 21.8924C3.17152 20.6821 2.73663 19.3493 2.58057 17.9719C2.52004 17.5638 2.49354 17.1515 2.50133 16.7391C2.5171 11.6588 6.1341 7.27385 11.1951 6.19939C11.8078 6.08472 12.422 6.39061 12.6893 6.9435C12.7559 7.04383 12.8091 7.15206 12.8478 7.26558C12.9427 8.73005 13.0411 10.1807 13.1391 11.6251C13.2165 12.7659 13.2936 13.9029 13.3685 15.0399C13.3647 15.3077 13.4068 15.5743 13.493 15.8284C13.6962 16.3284 14.2017 16.6457 14.7496 16.617Z" fill="#200E32"/>
</svg>
