<svg width="30" height="30" viewBox="0 0 30 30" fill="none" xmlns="http://www.w3.org/2000/svg">
<path d="M26.3738 23.4105L16.9608 13.9975L5.96336 3H5.10391L4.92841 3.44593C4.46523 4.62294 4.26733 5.82677 4.35618 6.92713C4.45745 8.18141 4.93395 9.26732 5.73423 10.0676L14.3194 18.6528L15.4518 17.5204L23.3888 26.3955C24.1784 27.1851 25.5373 27.232 26.3738 26.3955C27.1968 25.5725 27.1968 24.2334 26.3738 23.4105Z" fill="#DADADA"/>
<path d="M10.3411 16.6644L3.6172 23.3883C2.79427 24.2113 2.79427 25.5504 3.6172 26.3733C4.39897 27.1551 5.75138 27.2241 6.60216 26.3733L13.3261 19.6493L10.3411 16.6644Z" fill="#DADADA"/>
<path d="M25.9786 6.99698L22.1644 10.8111L21.1694 9.81611L24.9836 6.00193L23.9886 5.00693L20.1744 8.82106L19.1794 7.82606L22.9936 4.01192L21.9986 3.01697L17.0236 7.99199C16.415 8.60061 16.0516 9.40872 16.0002 10.2676C15.9872 10.4852 15.9379 10.6992 15.8561 10.9028L19.0878 14.1345C19.2914 14.0526 19.5055 14.0034 19.7231 13.9904C20.5819 13.9391 21.39 13.5756 21.9986 12.967L26.9737 7.99203L25.9786 6.99698Z" fill="#DADADA"/>
</svg>
