<svg width="30" height="30" viewBox="0 0 30 30" fill="none" xmlns="http://www.w3.org/2000/svg">
<path d="M10.5264 13.0698H20.4737V17.8066H10.5264V13.0698Z" fill="#200E32"/>
<path d="M28.0383 11.4917H27.579V19.3864H28.0383C28.5692 19.3853 28.9995 18.6797 29 17.8085V13.0691C28.9994 12.1982 28.5691 11.4925 28.0383 11.4917Z" fill="#200E32"/>
<path d="M24.6862 8.33301H21.8947V22.5435H24.6862C25.4986 22.5425 26.1571 21.8714 26.1578 21.0431V9.8334C26.1571 9.00514 25.4986 8.33403 24.6862 8.33301Z" fill="#200E32"/>
<path d="M4.84204 9.8334V21.0431C4.84279 21.8714 5.50127 22.5427 6.31363 22.5435H9.10519V8.33301H6.31363C5.50127 8.33403 4.84279 9.00514 4.84204 9.8334Z" fill="#200E32"/>
<path d="M2 13.0694V17.8085C2.00049 18.6797 2.43081 19.3853 2.9617 19.3864H3.42105V11.4917H2.9617C2.43081 11.4925 2.00066 12.1984 2 13.0694Z" fill="#200E32"/>
</svg>
