<svg width="46" height="46" viewBox="0 0 46 46" fill="none" xmlns="http://www.w3.org/2000/svg">
<path fill-rule="evenodd" clip-rule="evenodd" d="M17.1075 31.4141H27.431C28.209 31.4141 28.8542 30.7624 28.8542 29.9766C28.8542 29.1908 28.209 28.5583 27.431 28.5583H17.1075C16.3295 28.5583 15.6843 29.1908 15.6843 29.9766C15.6843 30.7624 16.3295 31.4141 17.1075 31.4141ZM23.5217 18.9749H17.1075C16.3295 18.9749 15.6843 19.6266 15.6843 20.4124C15.6843 21.1983 16.3295 21.8308 17.1075 21.8308H23.5217C24.2998 21.8308 24.945 21.1983 24.945 20.4124C24.945 19.6266 24.2998 18.9749 23.5217 18.9749ZM37.0646 17.299C37.5106 17.2939 37.9963 17.2883 38.4376 17.2883C38.912 17.2883 39.2916 17.6716 39.2916 18.1508V33.5608C39.2916 38.3141 35.4772 42.1666 30.771 42.1666H15.6653C10.7314 42.1666 6.70825 38.1224 6.70825 33.1391V12.4774C6.70825 7.72409 10.5416 3.83325 15.2668 3.83325H25.4005C25.8939 3.83325 26.2734 4.23575 26.2734 4.71492V10.8866C26.2734 14.3941 29.1389 17.2691 32.6117 17.2883C33.4229 17.2883 34.138 17.2943 34.7638 17.2996C35.2507 17.3038 35.6835 17.3074 36.0655 17.3074C36.3356 17.3074 36.6858 17.3034 37.0646 17.299ZM37.5878 14.5014C36.0279 14.5072 34.189 14.5014 32.8663 14.488C30.7675 14.488 29.0387 12.7419 29.0387 10.6221V5.56976C29.0387 4.74368 30.0312 4.33351 30.5986 4.92959C31.6255 6.00798 33.0365 7.49026 34.4412 8.96583C35.8427 10.4381 37.2378 11.9036 38.2387 12.9547C38.7928 13.5354 38.3867 14.4995 37.5878 14.5014Z" fill="#DADADA"/>
</svg>
