<svg width="30" height="30" viewBox="0 0 30 30" fill="none" xmlns="http://www.w3.org/2000/svg">
<path fill-rule="evenodd" clip-rule="evenodd" d="M21.4748 5.5125C21.4748 3.85 22.8248 2.5 24.4873 2.5C26.1498 2.5 27.4998 3.85 27.4998 5.5125C27.4998 7.175 26.1498 8.525 24.4873 8.525C22.8248 8.525 21.4748 7.175 21.4748 5.5125ZM16.6621 18.4491L20.2746 13.7879L20.2246 13.8129C20.4246 13.5379 20.4621 13.1879 20.3246 12.8754C20.1884 12.5629 19.8871 12.3504 19.5634 12.3254C19.2246 12.2879 18.8884 12.4379 18.6871 12.7129L15.6634 16.6254L12.1996 13.9004C11.9871 13.7379 11.7371 13.6741 11.4871 13.7004C11.2384 13.7379 11.0134 13.8741 10.8621 14.0741L7.16339 18.8879L7.08714 19.0004C6.87464 19.3991 6.97464 19.9116 7.34964 20.1879C7.52464 20.3004 7.71214 20.3754 7.92464 20.3754C8.21339 20.3879 8.48714 20.2366 8.66214 20.0004L11.7996 15.9616L15.3621 18.6379L15.4746 18.7116C15.8746 18.9241 16.3746 18.8254 16.6621 18.4491ZM19.3121 4.72538C19.2621 5.03788 19.2371 5.35038 19.2371 5.66288C19.2371 8.47538 21.5121 10.7491 24.3121 10.7491C24.6246 10.7491 24.9246 10.7129 25.2371 10.6629V20.7491C25.2371 24.9879 22.7371 27.5004 18.4871 27.5004H9.25088C4.99963 27.5004 2.49963 24.9879 2.49963 20.7491V11.5004C2.49963 7.25038 4.99963 4.72538 9.25088 4.72538H19.3121Z" fill="#DADADA"/>
</svg>
