<svg width="91" height="106" viewBox="0 0 91 106" fill="none" xmlns="http://www.w3.org/2000/svg">
<rect x="28.5" y="13.5" width="60" height="73" rx="3.5" fill="white" stroke="#F7F7F7"/>
<g filter="url(#filter0_d)">
<rect x="10" y="6" width="71" height="86" rx="4" fill="white"/>
</g>
<circle cx="17" cy="18" r="2" fill="#F8F8F8"/>
<circle cx="17" cy="49" r="2" fill="#F8F8F8"/>
<circle cx="17" cy="80" r="2" fill="#F8F8F8"/>
<rect x="22" y="12" width="52" height="1" fill="#F8F8F8"/>
<rect x="22" y="28" width="52" height="1" fill="#F8F8F8"/>
<rect x="22" y="20" width="52" height="1" fill="#F8F8F8"/>
<rect x="22" y="36" width="52" height="1" fill="#F8F8F8"/>
<rect x="22" y="16" width="52" height="1" fill="#F8F8F8"/>
<rect x="22" y="32" width="52" height="1" fill="#F8F8F8"/>
<rect x="22" y="24" width="52" height="1" fill="#F8F8F8"/>
<rect x="22" y="40" width="52" height="1" fill="#F8F8F8"/>
<rect x="22" y="44" width="52" height="1" fill="#F8F8F8"/>
<rect x="22" y="60" width="52" height="1" fill="#F8F8F8"/>
<rect x="22" y="76" width="52" height="1" fill="#F8F8F8"/>
<rect x="22" y="52" width="52" height="1" fill="#F8F8F8"/>
<rect x="22" y="68" width="52" height="1" fill="#F8F8F8"/>
<rect x="22" y="84" width="52" height="1" fill="#F8F8F8"/>
<rect x="22" y="48" width="52" height="1" fill="#F8F8F8"/>
<rect x="22" y="64" width="52" height="1" fill="#F8F8F8"/>
<rect x="22" y="80" width="52" height="1" fill="#F8F8F8"/>
<rect x="22" y="56" width="52" height="1" fill="#F8F8F8"/>
<rect x="22" y="72" width="52" height="1" fill="#F8F8F8"/>
<path d="M63.7188 46.3749V40.4687C63.719 40.0062 63.597 39.5519 63.3651 39.1517C63.1332 38.7516 62.7997 38.4199 62.3982 38.1902C61.9968 37.9606 61.5418 37.8411 61.0794 37.844C60.6169 37.8468 60.1634 37.9719 59.7648 38.2065C59.69 37.5399 59.3627 36.9272 58.8503 36.4943C58.3378 36.0614 57.6791 35.8411 57.0093 35.8786C56.3395 35.9162 55.7096 36.2087 55.2487 36.6962C54.7879 37.1837 54.5311 37.8291 54.5312 38.4999V46.3749H37.4688V38.4999C37.4679 37.8297 37.2108 37.1852 36.7501 36.6985C36.2893 36.2118 35.6599 35.9198 34.9907 35.8822C34.3216 35.8447 33.6634 36.0646 33.1511 36.4967C32.6389 36.9289 32.3113 37.5406 32.2356 38.2065C31.837 37.9718 31.3835 37.8466 30.9209 37.8437C30.4584 37.8408 30.0033 37.9602 29.6019 38.1899C29.2004 38.4196 28.8668 38.7514 28.6348 39.1515C28.4029 39.5517 28.2809 40.0061 28.2812 40.4687V46.3749C27.5851 46.3749 26.9174 46.6515 26.4251 47.1438C25.9328 47.636 25.6562 48.3037 25.6562 48.9999C25.6562 49.6961 25.9328 50.3638 26.4251 50.8561C26.9174 51.3484 27.5851 51.6249 28.2812 51.6249V57.5312C28.2809 57.9937 28.4029 58.4481 28.6348 58.8483C28.8668 59.2485 29.2004 59.5802 29.6019 59.8099C30.0033 60.0396 30.4584 60.159 30.9209 60.1561C31.3835 60.1532 31.837 60.0281 32.2356 59.7933C32.3113 60.4593 32.6389 61.071 33.1511 61.5031C33.6634 61.9353 34.3216 62.1551 34.9907 62.1176C35.6599 62.0801 36.2893 61.788 36.7501 61.3013C37.2108 60.8146 37.4679 60.1701 37.4688 59.4999V51.6249H54.5312V59.4999C54.5311 60.1707 54.7879 60.8162 55.2487 61.3036C55.7096 61.7911 56.3395 62.0837 57.0093 62.1212C57.6791 62.1588 58.3378 61.9385 58.8503 61.5056C59.3627 61.0726 59.69 60.46 59.7648 59.7933C60.1634 60.028 60.6169 60.153 61.0794 60.1559C61.5418 60.1587 61.9968 60.0393 62.3982 59.8096C62.7997 59.5799 63.1332 59.2482 63.3651 58.8481C63.597 58.448 63.719 57.9936 63.7188 57.5312V51.6249C64.4149 51.6249 65.0826 51.3484 65.5749 50.8561C66.0672 50.3638 66.3438 49.6961 66.3438 48.9999C66.3438 48.3037 66.0672 47.636 65.5749 47.1438C65.0826 46.6515 64.4149 46.3749 63.7188 46.3749ZM28.2812 50.3124C27.9332 50.3124 27.5993 50.1741 27.3532 49.928C27.107 49.6819 26.9688 49.348 26.9688 48.9999C26.9688 48.6518 27.107 48.318 27.3532 48.0718C27.5993 47.8257 27.9332 47.6874 28.2812 47.6874V50.3124ZM30.9062 58.8437C30.5583 58.8433 30.2247 58.7048 29.9786 58.4588C29.7326 58.2127 29.5942 57.8791 29.5938 57.5312V40.4687C29.5938 40.1206 29.732 39.7867 29.9782 39.5406C30.2243 39.2944 30.5582 39.1562 30.9062 39.1562C31.2543 39.1562 31.5882 39.2944 31.8343 39.5406C32.0805 39.7867 32.2188 40.1206 32.2188 40.4687V57.5312C32.2183 57.8791 32.0799 58.2127 31.8339 58.4588C31.5878 58.7048 31.2542 58.8433 30.9062 58.8437ZM36.1562 59.4999C36.1562 59.848 36.018 60.1819 35.7718 60.428C35.5257 60.6741 35.1918 60.8124 34.8438 60.8124C34.4957 60.8124 34.1618 60.6741 33.9157 60.428C33.6695 60.1819 33.5312 59.848 33.5312 59.4999V38.4999C33.5312 38.1518 33.6695 37.818 33.9157 37.5718C34.1618 37.3257 34.4957 37.1874 34.8438 37.1874C35.1918 37.1874 35.5257 37.3257 35.7718 37.5718C36.018 37.818 36.1562 38.1518 36.1562 38.4999V59.4999ZM37.4688 50.3124V47.6874H54.5312V50.3124H37.4688ZM58.4688 59.4999C58.4688 59.848 58.3305 60.1819 58.0843 60.428C57.8382 60.6741 57.5043 60.8124 57.1562 60.8124C56.8082 60.8124 56.4743 60.6741 56.2282 60.428C55.982 60.1819 55.8438 59.848 55.8438 59.4999V38.4999C55.8438 38.1518 55.982 37.818 56.2282 37.5718C56.4743 37.3257 56.8082 37.1874 57.1562 37.1874C57.5043 37.1874 57.8382 37.3257 58.0843 37.5718C58.3305 37.818 58.4688 38.1518 58.4688 38.4999V59.4999ZM62.4062 57.5312C62.4062 57.8793 62.268 58.2131 62.0218 58.4592C61.7757 58.7054 61.4418 58.8437 61.0938 58.8437C60.7457 58.8437 60.4118 58.7054 60.1657 58.4592C59.9195 58.2131 59.7812 57.8793 59.7812 57.5312V40.4687C59.7812 40.1206 59.9195 39.7867 60.1657 39.5406C60.4118 39.2944 60.7457 39.1562 61.0938 39.1562C61.4418 39.1562 61.7757 39.2944 62.0218 39.5406C62.268 39.7867 62.4062 40.1206 62.4062 40.4687V57.5312ZM63.7188 50.3124V47.6874C64.0668 47.6874 64.4007 47.8257 64.6468 48.0718C64.893 48.318 65.0312 48.6518 65.0312 48.9999C65.0312 49.348 64.893 49.6819 64.6468 49.928C64.4007 50.1741 64.0668 50.3124 63.7188 50.3124Z" fill="url(#paint0_linear)"/>
<path d="M36.1562 59.4999C36.1562 59.848 36.018 60.1819 35.7718 60.428C35.5257 60.6741 35.1918 60.8124 34.8438 60.8124C34.4957 60.8124 34.1618 60.6741 33.9157 60.428C33.6695 60.1819 33.5312 59.848 33.5312 59.4999V38.4999C33.5312 38.1518 33.6695 37.818 33.9157 37.5718C34.1618 37.3257 34.4957 37.1874 34.8438 37.1874C35.1918 37.1874 35.5257 37.3257 35.7718 37.5718C36.018 37.818 36.1562 38.1518 36.1562 38.4999V59.4999Z" fill="url(#paint1_linear)"/>
<path d="M30.9062 58.8437C30.5583 58.8433 30.2247 58.7048 29.9786 58.4588C29.7326 58.2127 29.5942 57.8791 29.5938 57.5312V40.4687C29.5938 40.1206 29.732 39.7867 29.9782 39.5406C30.2243 39.2944 30.5582 39.1562 30.9062 39.1562C31.2543 39.1562 31.5882 39.2944 31.8343 39.5406C32.0805 39.7867 32.2188 40.1206 32.2188 40.4687V57.5312C32.2183 57.8791 32.0799 58.2127 31.8339 58.4588C31.5878 58.7048 31.2542 58.8433 30.9062 58.8437Z" fill="url(#paint2_linear)"/>
<path d="M58.4688 59.4999C58.4688 59.848 58.3305 60.1819 58.0843 60.428C57.8382 60.6741 57.5043 60.8124 57.1562 60.8124C56.8082 60.8124 56.4743 60.6741 56.2282 60.428C55.982 60.1819 55.8438 59.848 55.8438 59.4999V38.4999C55.8438 38.1518 55.982 37.818 56.2282 37.5718C56.4743 37.3257 56.8082 37.1874 57.1562 37.1874C57.5043 37.1874 57.8382 37.3257 58.0843 37.5718C58.3305 37.818 58.4688 38.1518 58.4688 38.4999V59.4999Z" fill="url(#paint3_linear)"/>
<path d="M62.4062 57.5312C62.4062 57.8793 62.268 58.2131 62.0218 58.4592C61.7757 58.7054 61.4418 58.8437 61.0938 58.8437C60.7457 58.8437 60.4118 58.7054 60.1657 58.4592C59.9195 58.2131 59.7812 57.8793 59.7812 57.5312V40.4687C59.7812 40.1206 59.9195 39.7867 60.1657 39.5406C60.4118 39.2944 60.7457 39.1562 61.0938 39.1562C61.4418 39.1562 61.7757 39.2944 62.0218 39.5406C62.268 39.7867 62.4062 40.1206 62.4062 40.4687V57.5312Z" fill="url(#paint4_linear)"/>
<defs>
<filter id="filter0_d" x="0" y="0" width="91" height="106" filterUnits="userSpaceOnUse" color-interpolation-filters="sRGB">
<feFlood flood-opacity="0" result="BackgroundImageFix"/>
<feColorMatrix in="SourceAlpha" type="matrix" values="0 0 0 0 0 0 0 0 0 0 0 0 0 0 0 0 0 0 127 0"/>
<feOffset dy="4"/>
<feGaussianBlur stdDeviation="5"/>
<feColorMatrix type="matrix" values="0 0 0 0 0 0 0 0 0 0 0 0 0 0 0 0 0 0 0.1 0"/>
<feBlend mode="normal" in2="BackgroundImageFix" result="effect1_dropShadow"/>
<feBlend mode="normal" in="SourceGraphic" in2="effect1_dropShadow" result="shape"/>
</filter>
<linearGradient id="paint0_linear" x1="25.6562" y1="48.9999" x2="66.3438" y2="48.9999" gradientUnits="userSpaceOnUse">
<stop stop-color="#F77062"/>
<stop offset="1" stop-color="#FE5196"/>
</linearGradient>
<linearGradient id="paint1_linear" x1="25.6562" y1="48.9999" x2="66.3438" y2="48.9999" gradientUnits="userSpaceOnUse">
<stop stop-color="#F77062"/>
<stop offset="1" stop-color="#FE5196"/>
</linearGradient>
<linearGradient id="paint2_linear" x1="25.6562" y1="48.9999" x2="66.3438" y2="48.9999" gradientUnits="userSpaceOnUse">
<stop stop-color="#F77062"/>
<stop offset="1" stop-color="#FE5196"/>
</linearGradient>
<linearGradient id="paint3_linear" x1="25.6562" y1="48.9999" x2="66.3438" y2="48.9999" gradientUnits="userSpaceOnUse">
<stop stop-color="#F77062"/>
<stop offset="1" stop-color="#FE5196"/>
</linearGradient>
<linearGradient id="paint4_linear" x1="25.6562" y1="48.9999" x2="66.3438" y2="48.9999" gradientUnits="userSpaceOnUse">
<stop stop-color="#F77062"/>
<stop offset="1" stop-color="#FE5196"/>
</linearGradient>
</defs>
</svg>
