<svg width="20" height="20" viewBox="0 0 20 20" fill="none" xmlns="http://www.w3.org/2000/svg">
<path d="M10 3.33337C4.05447 3.33337 0.213992 9.47416 0.144531 9.58598C0.0510356 9.70375 0.000101082 9.84967 0 10C0.000118269 10.129 0.03766 10.2552 0.108073 10.3633C0.108936 10.3646 0.109804 10.3659 0.110677 10.3672C0.12214 10.3909 3.34589 16.6667 10 16.6667C16.6259 16.6667 19.8449 10.4525 19.8841 10.3763C19.8868 10.372 19.8894 10.3677 19.8919 10.3633C19.9623 10.2552 19.9999 10.129 20 10C20 9.85027 19.9495 9.70487 19.8568 9.58728C19.8563 9.58685 19.8559 9.58641 19.8555 9.58598C19.786 9.47416 15.9455 3.33337 10 3.33337ZM10 5.33337C12.5773 5.33337 14.6667 7.42271 14.6667 10C14.6667 12.5774 12.5773 14.6667 10 14.6667C7.42267 14.6667 5.33333 12.5774 5.33333 10C5.33333 7.42271 7.42267 5.33337 10 5.33337ZM10 8.00004C9.46957 8.00004 8.96086 8.21075 8.58579 8.58583C8.21071 8.9609 8 9.46961 8 10C8 10.5305 8.21071 11.0392 8.58579 11.4143C8.96086 11.7893 9.46957 12 10 12C10.5304 12 11.0391 11.7893 11.4142 11.4143C11.7893 11.0392 12 10.5305 12 10C12 9.46961 11.7893 8.9609 11.4142 8.58583C11.0391 8.21075 10.5304 8.00004 10 8.00004Z" fill="#DCDCDC"/>
</svg>
