<svg width="30" height="30" viewBox="0 0 30 30" fill="none" xmlns="http://www.w3.org/2000/svg">
<path d="M15 3C10.3461 3 6.30766 5.66286 4.32027 9.54492C4.25412 9.6623 4.21237 9.79183 4.19753 9.92574C4.18268 10.0597 4.19505 10.1952 4.23388 10.3242C4.27272 10.4532 4.33722 10.5731 4.42352 10.6765C4.50982 10.78 4.61614 10.865 4.73609 10.9263C4.85604 10.9877 4.98715 11.0242 5.12155 11.0336C5.25596 11.043 5.39088 11.0252 5.51822 10.9812C5.64557 10.9372 5.7627 10.8679 5.8626 10.7775C5.9625 10.6871 6.0431 10.5774 6.09957 10.4551C7.75618 7.21914 11.1078 5 15 5C20.5345 5 25 9.46547 25 15C25 20.5345 20.5345 25 15 25C11.1078 25 7.75618 22.7809 6.09957 19.5449C6.0431 19.4226 5.9625 19.3129 5.8626 19.2225C5.7627 19.1321 5.64557 19.0628 5.51822 19.0188C5.39088 18.9748 5.25596 18.957 5.12155 18.9664C4.98715 18.9758 4.85604 19.0123 4.73609 19.0737C4.61614 19.135 4.50982 19.22 4.42352 19.3235C4.33722 19.4269 4.27272 19.5468 4.23388 19.6758C4.19505 19.8048 4.18268 19.9403 4.19753 20.0743C4.21237 20.2082 4.25412 20.3377 4.32027 20.4551C6.30766 24.3371 10.3461 27 15 27C21.6154 27 27 21.6155 27 15C27 8.38453 21.6154 3 15 3ZM13.9902 9.99023C13.7913 9.99029 13.5969 10.0497 13.4319 10.1608C13.2668 10.2719 13.1387 10.4297 13.0639 10.614C12.989 10.7983 12.9708 11.0008 13.0116 11.1955C13.0524 11.3902 13.1504 11.5683 13.2929 11.707L15.5859 14H3.99996C3.86745 13.9981 3.73589 14.0226 3.61292 14.072C3.48995 14.1214 3.37803 14.1948 3.28366 14.2878C3.18929 14.3809 3.11435 14.4918 3.0632 14.614C3.01206 14.7363 2.98572 14.8675 2.98572 15C2.98572 15.1325 3.01206 15.2637 3.0632 15.386C3.11435 15.5082 3.18929 15.6191 3.28366 15.7122C3.37803 15.8052 3.48995 15.8786 3.61292 15.928C3.73589 15.9774 3.86745 16.0019 3.99996 16H15.5859L13.2929 18.293C13.197 18.3851 13.1203 18.4955 13.0675 18.6176C13.0148 18.7397 12.9869 18.8712 12.9855 19.0042C12.9842 19.1373 13.0094 19.2692 13.0597 19.3924C13.1099 19.5156 13.1843 19.6275 13.2784 19.7216C13.3725 19.8157 13.4844 19.89 13.6076 19.9403C13.7307 19.9906 13.8627 20.0158 13.9957 20.0144C14.1288 20.0131 14.2602 19.9852 14.3823 19.9324C14.5045 19.8796 14.6148 19.803 14.707 19.707L18.6191 15.7949C18.7416 15.7015 18.8409 15.581 18.9091 15.4428C18.9774 15.3047 19.0128 15.1526 19.0126 14.9985C19.0124 14.8445 18.9766 14.6925 18.908 14.5545C18.8394 14.4165 18.7399 14.2963 18.6171 14.2031L14.707 10.293C14.6138 10.1972 14.5024 10.121 14.3792 10.069C14.2561 10.017 14.1238 9.99024 13.9902 9.99023Z" fill="white"/>
</svg>
