<svg width="30" height="30" viewBox="0 0 30 30" fill="none" xmlns="http://www.w3.org/2000/svg">
<path d="M12.18 28.2C10.71 27.33 9.66 25.8 9.6 24C9.51 20.64 11.85 18.99 13.23 16.74C15.21 13.5 14.67 11.49 14.67 11.49C14.67 11.49 16.32 12.42 17.28 15.87C17.58 16.89 17.64 17.91 17.55 18.87C17.4 21.3 16.35 23.49 16.35 23.49C16.35 23.49 18.18 23.1 18.69 19.77C19.53 20.64 20.31 21.9 20.4 23.22C20.55 25.5 19.2 27.6 17.16 28.5C20.7 27.69 23.22 24.69 24.09 22.5C25.2 19.74 24.9 17.28 24.72 15.15C24.48 12.24 25.5 10.08 25.5 10.08C25.5 10.08 23.55 10.65 22.11 13.02C21.45 14.1 21.18 15.69 21.18 15.69C21.18 15.69 21.33 14.28 20.4 11.7C19.47 9.18 18.63 8.28 18.12 6.42C17.46 3.93 18.93 1.5 18.93 1.5C18.93 1.5 13.11 2.58 10.47 7.65C8.13 12.15 9.09 14.85 9.09 14.85C9.09 14.85 8.1 13.92 7.59 12.63C7.08 11.34 7.2 10.17 7.2 10.17C7.2 10.17 3.06 14.73 5.07 20.46C6.42 24.48 9.03 27.12 12.18 28.2Z" fill="#200E32"/>
</svg>
