<svg width="30" height="30" viewBox="0 0 30 30" fill="none" xmlns="http://www.w3.org/2000/svg">
<g clip-path="url(#clip0)">
<path d="M17.3363 8.15818C17.3363 6.87068 16.2888 5.82568 15.0032 5.82568C13.7163 5.82568 12.67 6.87193 12.67 8.15818C12.67 9.44443 13.7175 10.4901 15.0032 10.4901C16.2894 10.4907 17.3363 9.44443 17.3363 8.15818Z" fill="#200E32"/>
<path d="M25.5544 2.42236H25.4625C24.735 2.42236 24.1431 3.01361 24.1431 3.74049V4.48049H20.1269C20.09 4.48049 20.06 4.49486 20.0256 4.50111C20.0125 4.49861 20 4.49611 19.9875 4.49299C19.8156 4.37799 19.6138 4.31674 19.4025 4.31674C19.4013 4.31674 19.4 4.31674 19.3988 4.31674C19.1925 4.31674 18.9994 4.37799 18.8375 4.48049H11.3331C11.29 4.48049 11.2513 4.49611 11.2106 4.50486C11.0344 4.38424 10.8263 4.31674 10.6069 4.31674C10.6056 4.31674 10.6044 4.31674 10.6031 4.31674C10.3806 4.31736 10.1731 4.38674 10.0025 4.50486C9.96187 4.49611 9.92312 4.48049 9.88 4.48049H5.855V3.74111C5.855 3.01424 5.26312 2.42299 4.53562 2.42299H4.44313C3.71625 2.42299 3.125 3.01424 3.125 3.74111V6.46924C3.125 7.19674 3.71625 7.78799 4.44375 7.78799H4.53562C5.26312 7.78799 5.855 7.19674 5.855 6.46924V5.73049H9.54063L9.55375 9.59049C9.55375 9.59111 9.55375 9.59111 9.55375 9.59111C9.55562 10.3042 9.91313 10.9636 10.5094 11.3561L12.5712 12.7149C12.5806 12.7205 12.5844 12.7286 12.5931 12.7355C12.6088 12.7486 12.6244 12.763 12.6369 12.7799C12.65 12.7955 12.6606 12.8111 12.67 12.8286C12.68 12.8455 12.6862 12.863 12.6919 12.8824C12.6994 12.903 12.7037 12.923 12.705 12.9449C12.7062 12.9561 12.7112 12.9642 12.7112 12.9755V18.9361C12.7112 18.9486 12.7056 18.958 12.7044 18.9699C12.7019 18.9911 12.6975 19.0105 12.6912 19.033C12.6838 19.0524 12.6762 19.0717 12.6656 19.0892C12.6587 19.1005 12.6575 19.1111 12.6513 19.1217L7.9975 25.5074C7.8075 25.7674 7.73 26.0861 7.78 26.4042C7.83 26.723 8.00125 27.0024 8.26125 27.1917C8.52188 27.383 8.83938 27.4586 9.15875 27.4099C9.47625 27.3599 9.75563 27.1886 9.94563 26.9292C9.94625 26.928 9.94625 26.928 9.94625 26.928L15.1494 19.7892C15.16 19.7761 15.1744 19.7674 15.1881 19.7549C15.2019 19.7405 15.2162 19.7242 15.2325 19.7136C15.2487 19.703 15.2688 19.6974 15.2869 19.6892C15.305 19.6817 15.3231 19.6742 15.3425 19.6705C15.3619 19.6661 15.3825 19.6674 15.4037 19.6674C15.4231 19.6674 15.4419 19.6661 15.4613 19.6699C15.4819 19.6736 15.5006 19.683 15.5212 19.6917C15.5356 19.698 15.5531 19.6999 15.5675 19.7074L18.025 21.2261C18.035 21.233 18.0406 21.2417 18.0506 21.2505C18.0675 21.2636 18.0825 21.2761 18.0969 21.2924C18.1094 21.3074 18.12 21.3249 18.13 21.3411C18.14 21.3586 18.1469 21.3761 18.1531 21.3949C18.1606 21.4155 18.1644 21.4355 18.1663 21.458C18.1675 21.4705 18.1737 21.4799 18.1737 21.4924V26.3724C18.1737 27.0367 18.7131 27.5792 19.38 27.5792C20.0444 27.5792 20.585 27.0386 20.585 26.3724V21.0667C20.585 20.383 20.2381 19.7599 19.6575 19.4005C19.6575 19.3992 19.6575 19.3992 19.6562 19.3992L17.4469 18.0336C17.4356 18.0267 17.43 18.0174 17.4213 18.0092C17.4044 17.9961 17.3881 17.983 17.375 17.9674C17.3619 17.9517 17.3519 17.9349 17.3419 17.9186C17.3306 17.9011 17.3238 17.883 17.3175 17.8649C17.3112 17.8442 17.3063 17.8242 17.3044 17.8011C17.3031 17.7886 17.2981 17.7799 17.2981 17.7674V12.978C17.2981 12.9667 17.3031 12.9586 17.3044 12.9474C17.3056 12.9267 17.3106 12.9067 17.3175 12.8849C17.3225 12.8655 17.33 12.848 17.3394 12.8311C17.3481 12.8136 17.3587 12.798 17.3725 12.7824C17.385 12.7655 17.4006 12.7511 17.4162 12.738C17.425 12.7311 17.4294 12.723 17.4381 12.7174L19.5 11.3586C20.0956 10.9661 20.4531 10.3055 20.4556 9.59299L20.4688 5.73299H24.1456V6.47236C24.1456 7.19986 24.7375 7.79111 25.465 7.79111H25.5562C26.2838 7.79111 26.8744 7.19986 26.8744 6.47236V3.74111C26.8738 3.01424 26.2819 2.42236 25.5544 2.42236ZM18.3119 9.43799C18.3106 9.45924 18.3056 9.47924 18.2987 9.50111C18.2925 9.51986 18.2863 9.53799 18.2781 9.55424C18.2669 9.57174 18.2575 9.58799 18.2438 9.60361C18.23 9.61924 18.2156 9.63424 18.2 9.64736C18.1913 9.65361 18.1869 9.66236 18.1781 9.66861L16.7144 10.6324C16.1944 10.9749 15.5987 11.1449 15.0031 11.1449C14.4087 11.1449 13.8131 10.9749 13.2931 10.6324L11.8294 9.66861C11.82 9.66236 11.8162 9.65361 11.8075 9.64736C11.7919 9.63424 11.7769 9.61924 11.7638 9.60299C11.7506 9.58799 11.7406 9.57174 11.7306 9.55424C11.7206 9.53799 11.715 9.51924 11.7087 9.50111C11.7012 9.48049 11.6969 9.46049 11.6956 9.43799C11.6944 9.42736 11.6894 9.41924 11.6894 9.40924L11.675 5.73049H18.33L18.3169 9.40861C18.3181 9.41861 18.3131 9.42674 18.3119 9.43799Z" fill="#200E32"/>
</g>
<defs>
<clipPath id="clip0">
<rect width="30" height="30" fill="white"/>
</clipPath>
</defs>
</svg>
