<svg width="30" height="30" viewBox="0 0 30 30" fill="none" xmlns="http://www.w3.org/2000/svg">
<path fill-rule="evenodd" clip-rule="evenodd" d="M7.06538 6.35006H9.64425C9.64425 3.3954 12.0393 1 14.9943 1C17.949 1 20.344 3.3954 20.344 6.35006H22.9229C24.7675 6.35006 26.2767 7.85927 26.2767 9.7039V25.5614C26.2767 27.4064 24.8446 29.9636 23 29.9636C21.1554 29.9636 18.0251 29.9636 14.9287 29.9636C11.8324 29.9636 7 29.9636 7 29.9636C5.15502 29.9636 3.71155 27.4064 3.71155 25.5614V9.7039C3.71155 7.85927 5.2204 6.35006 7.06538 6.35006ZM16.1483 5.95655L17.2378 4.10697L15.3882 5.1961C14.6054 4.92798 13.7745 5.50921 13.7745 6.35006C13.7745 7.02373 14.3206 7.56954 14.9943 7.56954C15.8362 7.56954 16.4157 6.74002 16.1483 5.95655ZM10.7522 11.4639C13.5804 11.4639 16.4082 11.4639 19.2365 11.4639C22.1894 11.4639 23.7945 14.1331 23.3961 16.8465L22.2375 24.7011C21.9588 26.5971 20.4836 28.0631 18.5238 28.0631C16.1709 28.0631 13.8177 28.0631 11.4648 28.0631C9.50505 28.0631 8.02985 26.5971 7.75074 24.7011L6.59219 16.8465C6.19372 14.1316 7.80033 11.4639 10.7522 11.4639ZM15.7282 12.932V26.5953H18.5238C19.7614 26.5953 20.6132 25.6719 20.7868 24.4893L21.9453 16.6344C22.2124 14.8131 21.2876 12.932 19.2365 12.932H15.7282ZM14.2604 12.932H10.7522C8.70317 12.932 7.77625 14.8131 8.04331 16.6344L9.20187 24.4893C9.37507 25.6723 10.2273 26.5953 11.4648 26.5953H14.2604V12.932ZM14.9943 2.67462C17.0242 2.67462 18.6698 4.32019 18.6698 6.35006C18.6698 8.38028 17.0242 10.0259 14.9943 10.0259C12.9641 10.0259 11.3182 8.38028 11.3182 6.35006C11.3182 4.32019 12.9641 2.67462 14.9943 2.67462Z" fill="#200E32"/>
</svg>
