<svg width="30" height="30" viewBox="0 0 30 30" fill="none" xmlns="http://www.w3.org/2000/svg">
<path fill-rule="evenodd" clip-rule="evenodd" d="M21.6195 2.3125C23.9362 2.3125 26.0671 3.22485 27.6201 4.8814C29.1547 6.5186 30 8.75524 30 11.1794C30 13.6749 29.0547 15.9591 27.0248 18.3679C25.2089 20.523 22.5991 22.7103 19.5773 25.2428L19.577 25.2431L19.5519 25.2641C18.5255 26.1245 17.3641 27.0981 16.1593 28.1343C15.8389 28.4103 15.4269 28.5625 15 28.5625C14.5729 28.5625 14.1611 28.4103 13.8403 28.1339C12.6264 27.0901 11.4573 26.1101 10.4257 25.2454L10.4237 25.2438C7.40135 22.7107 4.79141 20.5231 2.97546 18.3681C0.945511 15.9591 0 13.6749 0 11.1796C0 8.75524 0.845261 6.5186 2.37968 4.8814C3.93265 3.22485 6.06377 2.3125 8.38051 2.3125C10.1122 2.3125 11.6982 2.85095 13.0941 3.91278C13.7988 4.44875 14.4374 5.10471 15 5.86984C15.5628 5.10448 16.2012 4.44875 16.9057 3.91278C18.3018 2.85095 19.8878 2.3125 21.6195 2.3125ZM5.32242 7.14731V17.006C5.3231 17.7345 5.92346 18.3249 6.66412 18.3256H9.20929V5.82774H6.66412C5.92346 5.82864 5.3231 6.41887 5.32242 7.14731ZM20.7907 5.82774H23.3359C24.0765 5.82864 24.6769 6.41887 24.6776 7.14731V17.006C24.6769 17.7345 24.0765 18.3247 23.3359 18.3256H20.7907V5.82774ZM26.4903 8.61995H25.8495V15.2232H26.4903C27.231 15.2223 27.8313 14.6321 27.832 13.9034V9.9393C27.8311 9.21085 27.2308 8.62063 26.4903 8.61995ZM10.3812 14.3156V9.83777H19.6188V14.3156H10.3812ZM2.16797 13.9034V9.93952C2.16888 9.21108 2.76901 8.62063 3.50967 8.61995H4.15054V15.2232H3.50967C2.76901 15.2223 2.16866 14.6321 2.16797 13.9034Z" fill="#DADADA"/>
</svg>
